<svg width="367" height="61" viewBox="0 0 367 61" fill="none" xmlns="http://www.w3.org/2000/svg">
<path fill-rule="evenodd" clip-rule="evenodd" d="M13.0167 4.49402H159.728C162.989 4.49402 164.169 4.85923 165.361 5.53749C166.538 6.20479 167.5 7.23651 168.122 8.49835C168.755 9.7766 169.096 11.0418 169.096 14.5244V46.6373C169.096 50.1199 168.755 51.3851 168.122 52.6634C167.5 53.9252 166.538 54.9569 165.361 55.6242C164.169 56.3025 162.989 56.6677 159.741 56.6677H13.0045C9.75644 56.6677 8.57642 56.3025 7.38424 55.6242C6.20737 54.9569 5.24511 53.9252 4.62275 52.6634C3.99016 51.3851 3.64954 50.1199 3.64954 46.6373V14.5244C3.64954 11.0418 3.99016 9.7766 4.62275 8.49835C5.24511 7.23651 6.20737 6.20479 7.38424 5.53749C8.57642 4.85923 9.75644 4.49402 13.0045 4.49402H13.0167Z" fill="black"/>
<path fill-rule="evenodd" clip-rule="evenodd" d="M22.8215 43.3242L22.9674 43.3633C22.9181 43.3536 22.8693 43.3405 22.8215 43.3242ZM43.6239 28.4547C44.1713 28.7808 44.5119 29.2112 44.6214 29.6547L44.6457 29.8243C44.5971 30.3199 44.2443 30.8156 43.6117 31.1938L24.3908 42.8938C24.0015 43.1416 23.6244 43.246 23.2959 43.246C22.9553 43.246 22.6633 43.1286 22.42 42.9068L22.347 42.8286C22.0282 42.4162 21.8673 41.8894 21.8969 41.3547V18.2939C21.8969 17.5895 22.0915 17.0548 22.42 16.7287C22.6633 16.5069 22.9553 16.3896 23.2959 16.3896C23.6244 16.3896 24.0015 16.5069 24.3908 16.7417L43.6117 28.4547H43.6239ZM23.2837 16.233H23.454H23.2837ZM134.96 42.7894H137.222V26.4852H134.96V42.7894ZM155.397 32.3547L152.794 39.4242H152.721L150.02 32.3547H147.575L151.626 42.2416L149.315 47.7329H151.687L157.928 32.3547H155.397ZM142.526 40.9373C141.784 40.9373 140.75 40.546 140.75 39.5547C140.75 38.2895 142.04 37.8068 143.147 37.8068C144.157 37.8068 144.619 38.0416 145.227 38.3547C145.145 39.0627 144.826 39.7146 144.329 40.1895C143.832 40.6645 143.192 40.9301 142.526 40.9373ZM142.806 32.0025C141.152 32.0025 139.461 32.7851 138.755 34.4938L140.763 35.4069C141.2 34.4938 142.003 34.2069 142.831 34.2069C144.011 34.2069 145.203 34.9503 145.227 36.2938V36.4634C144.496 36.0486 143.682 35.8335 142.855 35.8373C140.69 35.8373 138.475 37.1155 138.475 39.5025C138.475 41.6938 140.264 43.1025 142.247 43.1025C143.779 43.1025 144.619 42.359 145.154 41.4981H145.227V42.7633H147.417V36.5025C147.417 33.6199 145.397 32.0025 142.794 32.0025H142.806ZM128.768 34.3503H125.544V28.7417H128.768C130.471 28.7417 131.444 30.2547 131.444 31.546C131.444 32.8112 130.471 34.3373 128.768 34.3373V34.3503ZM128.719 26.4852H123.269V42.7894H125.544V36.6069H128.707C131.225 36.6069 133.695 34.6503 133.695 31.546C133.695 28.4417 131.225 26.4852 128.707 26.4852H128.719ZM99.0482 40.9373C97.4911 40.9373 96.1773 39.5286 96.1773 37.5982C96.1773 35.6416 97.4911 34.2069 99.0482 34.2069C100.605 34.2069 101.822 35.6416 101.822 37.5982C101.822 39.5286 100.605 40.9373 99.0482 40.9373ZM101.664 33.2677H101.579C101.233 32.8653 100.811 32.5466 100.341 32.3329C99.8709 32.1192 99.3639 32.0155 98.8536 32.0286C97.5144 32.0829 96.2478 32.6952 95.3231 33.7353C94.3985 34.7754 93.8888 36.1613 93.9024 37.5982C93.8921 39.0302 94.4041 40.4099 95.329 41.443C96.2539 42.4761 97.5187 43.081 98.8536 43.1286C99.3663 43.1427 99.8757 43.0368 100.346 42.8183C100.817 42.5998 101.237 42.2739 101.579 41.8633H101.664V42.659C101.664 44.7851 100.605 45.9199 98.9023 45.9199C98.3329 45.9082 97.7798 45.7145 97.3138 45.3636C96.8478 45.0127 96.4902 44.5206 96.2868 43.9503L94.316 44.8242C94.6874 45.8001 95.3226 46.6347 96.1399 47.2204C96.9572 47.8062 97.9192 48.1164 98.9023 48.1111C101.566 48.1111 103.817 46.4155 103.817 42.3329V32.3677H101.664V33.2808V33.2677ZM105.386 42.7894H107.661V26.4852H105.386V42.7894ZM111.007 37.4025C110.982 36.9991 111.033 36.5944 111.156 36.2122C111.279 35.83 111.472 35.478 111.723 35.1768C111.975 34.8755 112.28 34.6311 112.62 34.4578C112.961 34.2846 113.331 34.186 113.707 34.1677C114.62 34.1677 115.386 34.6503 115.629 35.3416L111.007 37.4155V37.4025ZM118.062 35.5634C117.637 34.3243 116.323 32.0417 113.634 32.0417C110.97 32.0417 108.756 34.2721 108.756 37.5721C108.756 40.6894 110.946 43.1286 113.89 43.1286C116.262 43.1286 117.637 41.5634 118.208 40.6634L116.444 39.4112C116.179 39.8813 115.803 40.2691 115.355 40.5367C114.908 40.8042 114.402 40.9423 113.89 40.9373C112.734 40.9373 111.907 40.3764 111.384 39.2547L118.306 36.1895L118.062 35.5634ZM62.9543 33.7373V36.0851H68.1974C68.1218 37.1877 67.7018 38.2308 67.0053 39.046C66.4781 39.6219 65.844 40.0727 65.1441 40.3693C64.4442 40.6658 63.694 40.8016 62.9421 40.7677C62.1797 40.766 61.4252 40.6023 60.7222 40.2859C60.0192 39.9696 59.3817 39.5069 58.8466 38.9247C58.3115 38.3424 57.8893 37.6522 57.6046 36.8939C57.32 36.1355 57.1783 35.3242 57.188 34.5069C57.1737 33.2932 57.4929 32.1018 58.1058 31.0813C58.7187 30.0608 59.5982 29.2563 60.6346 28.7682C61.6711 28.28 62.8186 28.1297 63.9342 28.3361C65.0497 28.5424 66.084 29.0963 66.9079 29.9286L68.4529 28.2721C67.7279 27.5032 66.867 26.8972 65.9207 26.4896C64.9744 26.0819 63.9618 25.8809 62.9421 25.8982C60.8013 25.898 58.7464 26.8007 57.2213 28.4115C55.6962 30.0223 54.8234 32.2118 54.7915 34.5069C54.8234 36.8019 55.6962 38.9914 57.2213 40.6022C58.7464 42.213 60.8013 43.1158 62.9421 43.1155C65.3386 43.1155 67.1391 42.2807 68.5502 40.7025C69.8292 39.204 70.5104 37.2283 70.448 35.1982C70.448 34.6503 70.4115 34.1547 70.3263 33.7373H62.9421H62.9543ZM76.4211 40.9373C74.8518 40.9373 73.5014 39.5547 73.5014 37.5721C73.5014 35.5764 74.8518 34.2199 76.4211 34.2199C78.0026 34.2199 79.3407 35.5764 79.3407 37.5721C79.3407 39.5547 78.0026 40.9373 76.4211 40.9373ZM76.4211 32.0286C75.7378 32.0163 75.0592 32.1512 74.4254 32.4251C73.7916 32.699 73.2155 33.1064 72.7312 33.6233C72.2468 34.1402 71.8641 34.756 71.6057 35.4342C71.3473 36.1125 71.2183 36.8394 71.2266 37.5721C71.2167 38.3058 71.3444 39.0342 71.6021 39.7139C71.8598 40.3937 72.2423 41.0111 72.7268 41.5293C73.2113 42.0476 73.7879 42.4562 74.4226 42.7309C75.0572 43.0056 75.7368 43.1409 76.4211 43.1286C77.1054 43.1409 77.785 43.0056 78.4196 42.7309C79.0542 42.4562 79.6309 42.0476 80.1154 41.5293C80.5999 41.0111 80.9823 40.3937 81.2401 39.7139C81.4978 39.0342 81.6255 38.3058 81.6156 37.5721C81.6238 36.8394 81.4949 36.1125 81.2365 35.4342C80.978 34.756 80.5953 34.1402 80.111 33.6233C79.6266 33.1064 79.0505 32.699 78.4167 32.4251C77.7829 32.1512 77.1043 32.0163 76.4211 32.0286ZM87.759 40.9373C86.1775 40.9373 84.8394 39.5547 84.8394 37.5721C84.8394 35.5764 86.1775 34.2199 87.759 34.2199C89.3161 34.2199 90.6786 35.5764 90.6786 37.5721C90.6786 39.5547 89.3161 40.9373 87.759 40.9373ZM87.759 32.0286C87.0757 32.0163 86.3971 32.1512 85.7633 32.4251C85.1295 32.699 84.5534 33.1064 84.0691 33.6233C83.5848 34.1402 83.2021 34.756 82.9436 35.4342C82.6852 36.1125 82.5563 36.8394 82.5645 37.5721C82.5546 38.3058 82.6823 39.0342 82.94 39.7139C83.1977 40.3937 83.5802 41.0111 84.0647 41.5293C84.5492 42.0476 85.1259 42.4562 85.7605 42.7309C86.3951 43.0056 87.0747 43.1409 87.759 43.1286C88.4433 43.1409 89.1229 43.0056 89.7575 42.7309C90.3921 42.4562 90.9688 42.0476 91.4533 41.5293C91.9378 41.0111 92.3203 40.3937 92.578 39.7139C92.8357 39.0342 92.9634 38.3058 92.9535 37.5721C92.9617 36.8394 92.8328 36.1125 92.5744 35.4342C92.3159 34.756 91.9332 34.1402 91.4489 33.6233C90.9646 33.1064 90.3885 32.699 89.7547 32.4251C89.1209 32.1512 88.4422 32.0163 87.759 32.0286Z" fill="white"/>
<path fill-rule="evenodd" clip-rule="evenodd" d="M61.4947 17.707C61.4947 18.6853 61.2271 19.4679 60.6797 20.0548C60.0714 20.7461 59.2564 21.0983 58.271 21.0983C57.3221 21.0983 56.507 20.7461 55.8379 20.0418C55.5164 19.702 55.2631 19.2953 55.0937 18.8467C54.9242 18.3981 54.8422 17.917 54.8526 17.4331C54.8526 16.3896 55.181 15.5027 55.8501 14.7983C56.507 14.094 57.3099 13.7418 58.271 13.7418C58.7332 13.7418 59.1834 13.8462 59.6091 14.0418C60.0471 14.2375 60.3877 14.4983 60.6432 14.8244L60.0592 15.4375C59.8398 15.1619 59.5647 14.9436 59.2549 14.7989C58.9451 14.6543 58.6086 14.5872 58.271 14.6027C57.5776 14.6027 56.9815 14.8636 56.4705 15.3853C55.9718 15.907 55.7163 16.5853 55.7163 17.4201C55.7163 18.2548 55.9596 18.9331 56.4705 19.4548C56.9815 19.9766 57.5654 20.2374 58.271 20.2374C59.0009 20.2374 59.6091 19.9766 60.0957 19.4548C60.412 19.1027 60.6067 18.6331 60.6553 18.0201H58.271V17.1722H61.4461C61.4826 17.3548 61.4947 17.5375 61.4947 17.694" fill="white"/>
<path fill-rule="evenodd" clip-rule="evenodd" d="M61.4945 17.7071H61.385C61.385 18.6723 61.1174 19.4027 60.6065 19.9767C59.9982 20.6419 59.2318 20.981 58.2708 20.981C57.3462 20.981 56.5676 20.6419 55.9229 19.9636C55.6074 19.6339 55.3592 19.2376 55.1938 18.7999C55.0284 18.3621 54.9494 17.8923 54.9618 17.4201C54.9618 16.4028 55.2781 15.568 55.935 14.8767C56.2394 14.5457 56.6035 14.2848 57.0051 14.1099C57.4067 13.9349 57.8374 13.8497 58.2708 13.8593C58.7209 13.8593 59.1588 13.9506 59.5724 14.1462C59.986 14.3419 60.3023 14.5897 60.5578 14.9028L60.643 14.8245L60.5578 14.7462L59.986 15.3593L60.059 15.4375L60.1442 15.3723C59.6941 14.7854 59.0493 14.4854 58.2708 14.4854C57.5408 14.4854 56.9204 14.7593 56.3973 15.3071C55.8742 15.8419 55.6066 16.5593 55.6066 17.4201C55.6066 18.281 55.8742 18.9854 56.3973 19.5332C56.9204 20.081 57.553 20.3549 58.2708 20.3549C59.025 20.3549 59.6697 20.081 60.1807 19.5332C60.5213 19.168 60.716 18.6593 60.7646 18.0332V17.9028H58.3924V17.2897H61.458V17.1723L61.3485 17.1984C61.385 17.368 61.3972 17.5375 61.3972 17.7071H61.6162C61.6162 17.5245 61.604 17.3419 61.5675 17.1593L61.5553 17.0549H58.1491V18.1375H60.643V18.0201H60.5213C60.4848 18.6071 60.3023 19.0506 60.0104 19.3636C59.5359 19.8723 58.9642 20.1201 58.2586 20.1201C57.5895 20.1201 57.0177 19.8593 56.5311 19.3636C56.0445 18.868 55.8012 18.2288 55.8012 17.4201C55.8012 16.6115 56.0445 15.9854 56.5311 15.4636C57.0177 14.968 57.5895 14.7202 58.2586 14.7202C58.9885 14.7202 59.5481 14.981 59.9617 15.5158L60.0469 15.6202L60.7038 14.9028L60.7768 14.8376L60.7159 14.7462C60.4245 14.3857 60.0577 14.1041 59.6454 13.9245C59.2106 13.7265 58.7431 13.6245 58.2708 13.6245C57.2975 13.6245 56.446 13.9897 55.7769 14.7202C55.4422 15.0683 55.1777 15.4864 54.9998 15.9486C54.822 16.4108 54.7345 16.9072 54.7429 17.4071C54.7429 18.4767 55.0835 19.3897 55.7769 20.1201C56.1022 20.4727 56.4911 20.7505 56.9199 20.9366C57.3487 21.1228 57.8083 21.2133 58.2708 21.2027C59.2805 21.2027 60.1199 20.8375 60.7524 20.1201L60.6795 20.0419L60.7524 20.1332C61.3242 19.5201 61.604 18.6984 61.604 17.6941H61.4945V17.7071ZM66.5431 14.7593H63.5504V17.0028H66.2511V17.8375H63.5504V20.081H66.5431V20.9419H62.711V13.8984H66.5431V14.7593Z" fill="white"/>
<path fill-rule="evenodd" clip-rule="evenodd" d="M66.5431 14.7593V14.6419H63.441V17.1201H66.1417V17.7201H63.441V20.1984H66.4336V20.8245H62.8206V14.0158H66.4336V14.7593H66.5431V14.6419V14.7723H66.6526V13.781H62.6016V21.0592H66.6526V19.9636H63.66V17.9549H66.3607V16.8853H63.66V14.8767H66.6526V14.7593H66.531H66.5431ZM70.0954 20.9418H69.256V14.7593H67.4312V13.8984H71.9323V14.7593H70.1075V20.9418" fill="white"/>
<path fill-rule="evenodd" clip-rule="evenodd" d="M70.0955 20.9418V20.8245H69.3656V14.6419H67.5408V14.0158H71.823V14.6419H69.9982V20.9418H70.0955V20.8245V20.9549H70.2172V14.8767H72.0419V13.781H67.3097V14.8767H69.1466V21.0592H70.205V20.9418H70.0955ZM75.2049 20.9418H76.0564V13.8984H75.2049V20.9418Z" fill="white"/>
<path fill-rule="evenodd" clip-rule="evenodd" d="M75.2047 20.9418H75.3142V14.0288H75.9346V20.8245H75.2047V20.9549H75.3142H75.1925V21.0592H76.1657V13.781H75.0952V21.0592H75.2047V20.9418ZM79.791 20.9418H78.9394V14.7593H77.1146V13.8984H81.6157V14.7593H79.791V20.9418Z" fill="white"/>
<path fill-rule="evenodd" clip-rule="evenodd" d="M79.7908 20.9419V20.8245H79.0609V14.6419H77.2239V14.0158H81.5061V14.6419H79.6813V20.9419H79.7908V20.8245V20.9549H79.9003V14.8767H81.725V13.7811H77.0049V14.8767H78.8297V21.0593H79.9003V20.9419H79.7786H79.7908ZM85.9707 19.4419C86.4573 19.9636 87.0655 20.2245 87.7589 20.2245C88.4645 20.2245 89.0606 19.9636 89.5472 19.4419C90.0338 18.9202 90.2771 18.2419 90.2771 17.4202C90.2771 16.5984 90.0338 15.9332 89.5472 15.3984C89.0606 14.8767 88.4645 14.6158 87.7589 14.6158C87.0534 14.6158 86.4573 14.8767 85.9707 15.3984C85.4841 15.9202 85.2408 16.5984 85.2408 17.4202C85.2408 18.2419 85.4841 18.9202 85.9707 19.4419ZM90.1677 20.0289C89.5229 20.7462 88.72 21.0984 87.7589 21.0984C86.7979 21.0984 85.995 20.7462 85.3502 20.0289C85.0332 19.6862 84.7837 19.2787 84.6165 18.8305C84.4493 18.3824 84.3679 17.9027 84.377 17.4202C84.3673 16.9387 84.4477 16.4599 84.6136 16.0124C84.7794 15.5648 85.0274 15.1575 85.3427 14.8145C85.6581 14.4715 86.0344 14.1999 86.4495 14.0156C86.8645 13.8314 87.3098 13.7383 87.7589 13.7419C88.2081 13.7383 88.6534 13.8314 89.0684 14.0156C89.4835 14.1999 89.8598 14.4715 90.1751 14.8145C90.4905 15.1575 90.7384 15.5648 90.9043 16.0124C91.0702 16.4599 91.1506 16.9387 91.1409 17.4202C91.1409 18.4506 90.8124 19.3245 90.1677 20.0289Z" fill="white"/>
<path fill-rule="evenodd" clip-rule="evenodd" d="M85.9708 19.4419L85.8979 19.5201C86.4088 20.0679 87.0292 20.3549 87.7591 20.3549C88.489 20.3549 89.1216 20.0679 89.6204 19.5201C90.1313 18.9723 90.3868 18.2679 90.3868 17.4332C90.3868 16.5723 90.1313 15.868 89.6204 15.3201C89.3806 15.0509 89.0914 14.8378 88.7711 14.6941C88.4508 14.5505 88.1063 14.4794 87.7591 14.4854C87.0292 14.4854 86.4088 14.7723 85.8979 15.3201C85.6445 15.5965 85.4459 15.9251 85.3142 16.286C85.1825 16.6469 85.1203 17.0327 85.1314 17.4201C85.1314 18.2679 85.3869 18.9853 85.8979 19.5201L86.056 19.3636C85.8212 19.1082 85.6376 18.8041 85.5162 18.4699C85.3949 18.1357 85.3385 17.7785 85.3504 17.4201C85.3504 16.6375 85.5937 15.9853 86.056 15.4767C86.2763 15.232 86.5412 15.0386 86.8342 14.9085C87.1272 14.7783 87.442 14.7142 87.7591 14.7201C88.4404 14.7201 89 14.981 89.4622 15.4767C89.9367 15.9984 90.1678 16.6245 90.1678 17.4332C90.1678 18.2158 89.9245 18.8549 89.4622 19.3636C89 19.8723 88.4404 20.1201 87.7591 20.1201C87.442 20.126 87.1272 20.0619 86.8342 19.9318C86.5412 19.8016 86.2763 19.6082 86.056 19.3636L85.9708 19.4419ZM90.1678 20.0288L90.0948 19.9505C89.4622 20.6418 88.6958 20.981 87.7591 20.994C87.3253 20.9959 86.8956 20.9046 86.4953 20.7254C86.095 20.5463 85.7321 20.2831 85.4283 19.9512C85.1244 19.6193 84.8856 19.2255 84.7259 18.793C84.5663 18.3605 84.4891 17.8981 84.4989 17.4332C84.4875 16.9671 84.5634 16.5033 84.7223 16.0693C84.8812 15.6353 85.1197 15.24 85.4238 14.9067C85.7279 14.5734 86.0912 14.3089 86.4924 14.129C86.8935 13.9491 87.3243 13.8574 87.7591 13.8593C88.6958 13.8593 89.4622 14.1984 90.0827 14.9027C90.7153 15.594 91.0316 16.4288 91.0316 17.4201C91.0316 18.4245 90.7153 19.2592 90.0948 19.9505L90.253 20.1201C90.9099 19.3897 91.2505 18.4766 91.2505 17.4201C91.2603 16.9232 91.177 16.4292 91.0056 15.9674C90.8343 15.5056 90.5782 15.0853 90.2527 14.7314C89.9272 14.3776 89.5388 14.0973 89.1105 13.9071C88.6822 13.717 88.2227 13.6209 87.7591 13.6245C87.2966 13.6226 86.8384 13.72 86.4115 13.911C85.9846 14.1019 85.5977 14.3824 85.2734 14.7361C84.9492 15.0898 84.6943 15.5095 84.5237 15.9705C84.353 16.4314 84.2701 16.9243 84.2799 17.4201C84.2799 18.4766 84.6083 19.3766 85.2774 20.1201C85.9343 20.8505 86.7737 21.2158 87.7591 21.2158C88.7445 21.2158 89.5839 20.8505 90.253 20.1201L90.1678 20.0288ZM92.3332 20.9418V13.8984H93.3551L96.5424 19.3766H96.5789L96.5424 18.0201V13.8984H97.3939V20.9418H96.5059L93.1605 15.2027H93.124L93.1605 16.5593V20.9418H92.3211" fill="white"/>
<path fill-rule="evenodd" clip-rule="evenodd" d="M92.333 20.9418H92.4303V14.0288H93.2819L96.4813 19.5071H96.6881L96.6516 18.0201V14.0158H97.2721V20.8245H96.5665L93.2211 15.0853H93.0143L93.0508 16.5593V20.8245H92.3208V20.9549H92.4425H92.3208V21.0592H93.2697V16.5593L93.2332 15.1897H93.1238V15.3201H93.1602V15.1897L93.0751 15.2549L96.4448 21.0592H97.491V13.781H96.4327V18.0201L96.4692 19.3766H96.5786V19.2592H96.5422V19.3897L96.6395 19.3114L93.4157 13.781H92.2114V21.0592H92.333V20.9418Z" fill="white"/>
<path fill-rule="evenodd" clip-rule="evenodd" d="M206.815 4.49402H353.526C356.787 4.49402 357.967 4.85923 359.159 5.53749C360.336 6.20479 361.298 7.23651 361.92 8.49835C362.553 9.7766 362.894 11.0418 362.894 14.5244V46.6373C362.894 50.1199 362.553 51.3851 361.92 52.6634C361.298 53.9252 360.336 54.9569 359.159 55.6242C357.967 56.3025 356.787 56.6677 353.539 56.6677H206.803C203.554 56.6677 202.374 56.3025 201.182 55.6242C200.005 54.9569 199.043 53.9252 198.421 52.6634C197.788 51.3851 197.448 50.1199 197.448 46.6373V14.5244C197.448 11.0418 197.788 9.7766 198.421 8.49835C199.043 7.23651 200.005 6.20479 201.182 5.53749C202.374 4.85923 203.554 4.49402 206.803 4.49402H206.815Z" fill="black"/>
<path d="M234.369 30.62C234.393 28.1809 235.585 25.9374 237.519 24.6592C236.913 23.7325 236.114 22.9704 235.185 22.4337C234.255 21.897 233.222 21.6005 232.167 21.5679C229.928 21.307 227.751 23.0026 226.607 23.0026C225.439 23.0026 223.675 21.594 221.778 21.6331C220.55 21.676 219.353 22.0589 218.305 22.7446C217.256 23.4303 216.39 24.3955 215.792 25.5461C213.201 30.3591 215.136 37.4156 217.617 41.3026C218.858 43.1939 220.294 45.3199 222.204 45.2417C224.053 45.1634 224.758 43.9765 226.984 43.9765C229.211 43.9765 229.855 45.2417 231.79 45.2025C233.785 45.1634 235.038 43.2852 236.242 41.3678C237.13 40.0113 237.824 38.5113 238.274 36.933C237.117 36.408 236.129 35.5294 235.435 34.4067C234.74 33.2841 234.37 31.9671 234.369 30.62ZM230.707 19.0114C231.795 17.6143 232.332 15.8174 232.203 14.0027C230.537 14.1983 229.004 15.0462 227.909 16.3896C227.37 17.0465 226.957 17.8108 226.694 18.639C226.431 19.4671 226.323 20.3427 226.376 21.2157C227.207 21.2246 228.028 21.0308 228.779 20.6488C229.529 20.2669 230.188 19.707 230.707 19.0114Z" fill="white"/>
<path d="M259.855 39.2419H254.101L252.714 43.6245H250.281L255.731 27.4245H258.273L263.723 43.6245H261.242L259.855 39.2419ZM254.697 37.2202H259.259L257.008 30.1115H256.947L254.697 37.2202ZM275.499 37.7158C275.499 41.381 273.674 43.7419 270.901 43.7419C270.201 43.7819 269.504 43.6098 268.891 43.2454C268.278 42.8809 267.773 42.3388 267.434 41.681H267.385V47.5245H265.122V31.8071H267.312V33.7636H267.349C267.703 33.1068 268.218 32.5657 268.837 32.1981C269.456 31.8305 270.157 31.6503 270.864 31.6767C273.662 31.6767 275.499 34.0506 275.499 37.7158ZM273.176 37.7158C273.176 35.3289 272.02 33.7506 270.256 33.7506C268.541 33.7506 267.373 35.3549 267.373 37.7158C267.373 40.0897 268.541 41.694 270.268 41.694C272.02 41.694 273.176 40.1288 273.176 37.7158ZM287.616 37.7158C287.616 41.381 285.791 43.7419 283.029 43.7419C282.329 43.7819 281.633 43.6098 281.02 43.2454C280.407 42.8809 279.902 42.3388 279.562 41.681H279.502V47.5245H277.251V31.8071H279.441V33.7636H279.477C279.831 33.1088 280.343 32.569 280.96 32.2015C281.577 31.834 282.275 31.6527 282.981 31.6767C285.779 31.6767 287.616 34.0506 287.616 37.7158ZM285.304 37.7158C285.304 35.3289 284.149 33.7506 282.385 33.7506C280.657 33.7506 279.502 35.3549 279.502 37.7158C279.502 40.0897 280.657 41.694 282.385 41.694C284.149 41.694 285.304 40.1288 285.304 37.7158ZM295.633 39.1114C295.803 40.7158 297.251 41.7723 299.246 41.7723C301.156 41.7723 302.53 40.7158 302.53 39.268C302.53 38.0028 301.691 37.2593 299.732 36.7375L297.786 36.2289C295 35.5115 293.723 34.1289 293.723 31.8724C293.723 29.068 295.985 27.1506 299.209 27.1506C302.409 27.1506 304.598 29.068 304.671 31.8724H302.384C302.25 30.255 300.997 29.2637 299.185 29.2637C297.36 29.2637 296.119 30.255 296.119 31.7028C296.119 32.8376 296.91 33.5289 298.856 34.0376L300.523 34.468C303.625 35.2506 304.902 36.5941 304.902 38.9549C304.902 41.994 302.652 43.8853 299.075 43.8853C295.73 43.8853 293.467 42.0332 293.321 39.1114H295.633ZM309.793 29.0158V31.8071H311.885V33.7245H309.793V40.2462C309.793 41.2506 310.206 41.7201 311.131 41.7201C311.374 41.7201 311.618 41.694 311.861 41.668V43.5723C311.459 43.6636 311.034 43.7027 310.62 43.6897C308.382 43.6897 307.518 42.7766 307.518 40.4941V33.7245H305.912V31.8071H307.518V29.0158H309.793ZM313.09 37.7158C313.09 33.9984 315.133 31.6637 318.321 31.6637C321.508 31.6637 323.552 34.0115 323.552 37.7158C323.552 41.4462 321.52 43.7679 318.321 43.7679C315.121 43.7679 313.09 41.4462 313.09 37.7158ZM321.24 37.7158C321.24 35.1723 320.145 33.6723 318.321 33.6723C316.496 33.6723 315.401 35.1723 315.401 37.7158C315.401 40.2723 316.496 41.7593 318.321 41.7593C320.145 41.7593 321.24 40.2723 321.24 37.7158ZM325.413 31.8071H327.566V33.8158H327.615C327.919 32.5245 329.026 31.6376 330.267 31.6897C330.522 31.6897 330.79 31.7158 331.045 31.781V34.0506C330.715 33.9388 330.37 33.8859 330.023 33.8941C329.694 33.8783 329.365 33.9397 329.059 34.0739C328.754 34.2082 328.479 34.412 328.255 34.6714C328.03 34.9308 327.861 35.2394 327.759 35.5759C327.657 35.9125 327.624 36.2688 327.663 36.6202V43.6245H325.413V31.8071ZM341.459 40.1549C341.155 42.294 339.208 43.7679 336.714 43.7679C333.515 43.7679 331.532 41.4593 331.532 37.768C331.532 34.0636 333.527 31.6637 336.629 31.6637C339.67 31.6637 341.592 33.9071 341.592 37.4941V38.3158H333.807V38.4723C333.772 38.9069 333.824 39.3444 333.959 39.7559C334.094 40.1674 334.308 40.5434 334.589 40.8592C334.87 41.1749 335.21 41.423 335.587 41.5872C335.963 41.7514 336.369 41.8278 336.775 41.8114C337.87 41.9158 338.904 41.2506 339.318 40.1549H341.459ZM333.819 36.6332H339.33C339.35 36.2424 339.295 35.8513 339.167 35.4845C339.04 35.1177 338.843 34.783 338.59 34.5014C338.336 34.2198 338.031 33.9973 337.694 33.8479C337.357 33.6985 336.994 33.6254 336.629 33.6332C335.887 33.6332 335.175 33.9493 334.651 34.5119C334.126 35.0745 333.831 35.8376 333.831 36.6332H333.819Z" fill="white"/>
<path d="M254.417 15.2287C254.891 15.1937 255.366 15.2718 255.808 15.4574C256.25 15.643 256.649 15.9314 256.974 16.3019C257.3 16.6724 257.545 17.1158 257.692 17.6001C257.839 18.0844 257.883 18.5976 257.823 19.1026C257.823 21.5809 256.57 23.0156 254.417 23.0156H251.789V15.2287H254.417ZM252.92 21.907H254.283C254.621 21.9279 254.959 21.8681 255.273 21.732C255.587 21.5959 255.868 21.3867 256.098 21.1197C256.327 20.8526 256.498 20.5344 256.599 20.1878C256.699 19.8412 256.727 19.4751 256.679 19.1157C256.727 18.7563 256.699 18.3901 256.599 18.0435C256.498 17.697 256.327 17.3787 256.098 17.1116C255.868 16.8446 255.587 16.6355 255.273 16.4993C254.959 16.3632 254.621 16.3034 254.283 16.3244H252.92V21.907ZM259.1 20.0678C259.076 19.6879 259.125 19.3066 259.244 18.9477C259.363 18.5888 259.549 18.2599 259.791 17.9815C260.034 17.7031 260.327 17.4812 260.653 17.3294C260.979 17.1776 261.33 17.0993 261.685 17.0993C262.041 17.0993 262.392 17.1776 262.718 17.3294C263.044 17.4812 263.337 17.7031 263.579 17.9815C263.822 18.2599 264.008 18.5888 264.127 18.9477C264.246 19.3066 264.295 19.6879 264.271 20.0678C264.295 20.4478 264.246 20.8291 264.127 21.188C264.008 21.5469 263.822 21.8758 263.579 22.1541C263.337 22.4325 263.044 22.6545 262.718 22.8063C262.392 22.958 262.041 23.0363 261.685 23.0363C261.33 23.0363 260.979 22.958 260.653 22.8063C260.327 22.6545 260.034 22.4325 259.791 22.1541C259.549 21.8758 259.363 21.5469 259.244 21.188C259.125 20.8291 259.076 20.4478 259.1 20.0678ZM263.151 20.0678C263.151 18.8026 262.628 18.0591 261.691 18.0591C260.743 18.0591 260.22 18.8026 260.22 20.0678C260.22 21.3591 260.743 22.0896 261.679 22.0896C262.628 22.0896 263.151 21.3461 263.151 20.0678ZM271.132 23.0156H270.012L268.881 18.6852H268.796L267.665 23.0156H266.57L265.049 17.1461H266.144L267.117 21.62H267.202L268.334 17.1331H269.368L270.499 21.62H270.584L271.557 17.1331H272.64L271.132 23.0156ZM273.905 17.1461H274.952V18.0722H275.037C275.316 17.3809 275.973 16.9635 276.667 17.0287C276.933 17.006 277.201 17.048 277.45 17.1516C277.699 17.2552 277.923 17.4177 278.106 17.6271C278.288 17.8365 278.424 18.0873 278.504 18.3608C278.583 18.6343 278.604 18.9236 278.565 19.207V23.0156H277.47V19.4939C277.47 18.5548 277.105 18.0852 276.302 18.0852C276.12 18.0746 275.939 18.1065 275.77 18.1786C275.601 18.2507 275.449 18.3613 275.324 18.5027C275.199 18.6442 275.104 18.8131 275.046 18.9978C274.988 19.1825 274.968 19.3785 274.988 19.5722V23.0156H273.905V17.1461ZM280.292 14.8505H281.363V23.0156H280.28L280.292 14.8505ZM282.871 20.0678C282.847 19.6879 282.895 19.3066 283.014 18.9477C283.133 18.5888 283.32 18.2599 283.562 17.9815C283.805 17.7031 284.098 17.4812 284.424 17.3294C284.749 17.1776 285.101 17.0993 285.456 17.0993C285.811 17.0993 286.163 17.1776 286.489 17.3294C286.814 17.4812 287.108 17.7031 287.35 17.9815C287.592 18.2599 287.779 18.5888 287.898 18.9477C288.017 19.3066 288.066 19.6879 288.041 20.0678C288.066 20.4478 288.017 20.8291 287.898 21.188C287.779 21.5469 287.592 21.8758 287.35 22.1541C287.108 22.4325 286.814 22.6545 286.489 22.8063C286.163 22.958 285.811 23.0363 285.456 23.0363C285.101 23.0363 284.749 22.958 284.424 22.8063C284.098 22.6545 283.805 22.4325 283.562 22.1541C283.32 21.8758 283.133 21.5469 283.014 21.188C282.895 20.8291 282.847 20.4478 282.871 20.0678ZM286.922 20.0678C286.922 18.8026 286.387 18.0591 285.462 18.0591C284.513 18.0591 283.99 18.8026 283.99 20.0678C283.99 21.3591 284.513 22.0896 285.45 22.0896C286.387 22.0896 286.922 21.3461 286.922 20.0678ZM289.173 21.3461C289.173 20.3026 289.902 19.6896 291.216 19.5983L292.7 19.507V18.9983C292.7 18.3852 292.311 18.0331 291.569 18.0331C290.961 18.0331 290.547 18.2678 290.438 18.6852H289.379C289.501 17.6678 290.377 17.0287 291.618 17.0287C292.992 17.0287 293.771 17.7591 293.771 18.9983V23.0156H292.725V22.1809H292.64C292.287 22.7939 291.666 23.1461 290.997 23.1069C290.767 23.1325 290.535 23.106 290.315 23.0292C290.095 22.9524 289.892 22.8269 289.72 22.661C289.548 22.4951 289.411 22.2923 289.316 22.0658C289.222 21.8393 289.173 21.5941 289.173 21.3461ZM292.7 20.8504V20.3548L291.362 20.4461C290.608 20.4983 290.267 20.7852 290.267 21.2939C290.267 21.8157 290.693 22.1287 291.277 22.1287C291.449 22.1484 291.624 22.1307 291.79 22.0766C291.955 22.0225 292.109 21.9331 292.242 21.8138C292.375 21.6945 292.484 21.5477 292.563 21.3822C292.642 21.2167 292.688 21.0358 292.7 20.8504ZM295.194 20.0678C295.194 18.2157 296.082 17.0418 297.469 17.0418C298.163 17.0026 298.82 17.407 299.148 18.0722H299.221V14.8505H300.316V23.0156H299.27V22.0896H299.184C298.832 22.7417 298.175 23.133 297.469 23.1069C296.07 23.1069 295.194 21.933 295.194 20.0678ZM296.313 20.0678C296.313 21.32 296.861 22.0635 297.773 22.0635C298.686 22.0635 299.245 21.307 299.245 20.0809C299.245 18.8548 298.674 18.0852 297.773 18.0852C296.861 18.0852 296.313 18.8418 296.313 20.0678ZM304.78 20.0678C304.756 19.6879 304.805 19.3066 304.924 18.9477C305.043 18.5888 305.229 18.2599 305.472 17.9815C305.714 17.7031 306.007 17.4812 306.333 17.3294C306.659 17.1776 307.01 17.0993 307.366 17.0993C307.721 17.0993 308.072 17.1776 308.398 17.3294C308.724 17.4812 309.017 17.7031 309.259 17.9815C309.502 18.2599 309.688 18.5888 309.807 18.9477C309.926 19.3066 309.975 19.6879 309.951 20.0678C309.975 20.4478 309.926 20.8291 309.807 21.188C309.688 21.5469 309.502 21.8758 309.259 22.1541C309.017 22.4325 308.724 22.6545 308.398 22.8063C308.072 22.958 307.721 23.0363 307.366 23.0363C307.01 23.0363 306.659 22.958 306.333 22.8063C306.007 22.6545 305.714 22.4325 305.472 22.1541C305.229 21.8758 305.043 21.5469 304.924 21.188C304.805 20.8291 304.756 20.4478 304.78 20.0678ZM308.831 20.0678C308.831 18.8026 308.296 18.0591 307.372 18.0591C306.423 18.0591 305.9 18.8026 305.9 20.0678C305.9 21.3591 306.423 22.0896 307.359 22.0896C308.296 22.0896 308.831 21.3461 308.831 20.0678ZM311.398 17.1461H312.432V18.0722H312.517C312.797 17.3809 313.454 16.9635 314.16 17.0287C314.425 17.0081 314.691 17.0516 314.939 17.1561C315.187 17.2606 315.409 17.4235 315.59 17.6326C315.771 17.8417 315.906 18.0917 315.985 18.3642C316.064 18.6367 316.084 18.9247 316.045 19.207V23.0156H314.975V19.4939C314.975 18.5548 314.586 18.0852 313.783 18.0852C313.602 18.0766 313.422 18.1099 313.255 18.1828C313.087 18.2558 312.937 18.3667 312.813 18.5079C312.689 18.6492 312.596 18.8174 312.538 19.0011C312.481 19.1848 312.462 19.3796 312.481 19.5722V23.0156H311.386V17.1461H311.398ZM322.164 15.6722V17.1722H323.344V18.1374H322.164V21.1635C322.164 21.7765 322.396 22.0504 322.931 22.0504L323.344 22.0243V22.9896C323.15 23.0287 322.955 23.0417 322.761 23.0417C321.544 23.0417 321.082 22.5852 321.082 21.4635V18.1374H320.206V17.1722H321.082V15.6722H322.164ZM324.816 14.8505H325.899V18.0852H325.984C326.276 17.3939 326.945 16.9635 327.651 17.0418C327.915 17.0259 328.179 17.0728 328.425 17.1789C328.67 17.2851 328.891 17.448 329.071 17.6559C329.251 17.8639 329.386 18.1119 329.467 18.3823C329.547 18.6526 329.571 18.9386 329.537 19.22V23.0026H328.454V19.507C328.454 18.5678 328.04 18.0983 327.286 18.0983C327.1 18.0803 326.912 18.1064 326.736 18.1747C326.56 18.2431 326.4 18.352 326.268 18.4939C326.136 18.6357 326.034 18.807 325.97 18.9956C325.907 19.1841 325.882 19.3854 325.899 19.5852V23.0156H324.816V14.8505ZM335.838 21.4243C335.69 21.9599 335.372 22.4229 334.938 22.7327C334.505 23.0426 333.984 23.1796 333.466 23.12C333.106 23.129 332.748 23.0543 332.417 22.901C332.087 22.7476 331.791 22.5193 331.551 22.2318C331.31 21.9442 331.131 21.6042 331.025 21.2351C330.918 20.8661 330.888 20.4768 330.936 20.0939C330.889 19.7092 330.919 19.3182 331.025 18.9473C331.131 18.5763 331.31 18.234 331.55 17.9435C331.789 17.653 332.085 17.421 332.415 17.2632C332.746 17.1054 333.104 17.0254 333.466 17.0287C334.986 17.0287 335.899 18.1374 335.899 19.9896V20.3809H332.043V20.4591C332.026 20.6748 332.051 20.8918 332.117 21.0964C332.183 21.3009 332.288 21.4884 332.425 21.6469C332.563 21.8053 332.729 21.9312 332.915 22.0164C333.1 22.1016 333.301 22.1443 333.502 22.1417C334.025 22.207 334.536 21.92 334.804 21.4243H335.838ZM332.043 19.5331H334.804C334.818 19.3367 334.793 19.1394 334.731 18.9538C334.67 18.7682 334.573 18.5982 334.448 18.4548C334.322 18.3113 334.17 18.1974 334.001 18.1203C333.832 18.0432 333.65 18.0046 333.466 18.007C333.278 18.0034 333.091 18.0405 332.917 18.1159C332.743 18.1914 332.585 18.3037 332.452 18.4461C332.319 18.5885 332.215 18.7581 332.144 18.9449C332.074 19.1316 332.039 19.3317 332.043 19.5331Z" fill="white"/>
</svg>
